<?xml version="1.0" encoding="utf-8"?>
<svg xmlns="http://www.w3.org/2000/svg" width="40.64mm" height="128.50mm" viewBox="0 0 40.64 128.50">
    <g id="PanelLayer">
        <rect id="border_rect" width="40.64" height="128.5" x="0" y="0" style="display:inline;fill:#a06de4;fill-opacity:1;fill-rule:nonzero;stroke:#5021d4;stroke-width:0.7;stroke-linecap:round;stroke-linejoin:round;stroke-dasharray:none;stroke-opacity:1;image-rendering:auto" />
        <path d="M10.2849 5.73755V7.99604Q10.2849 8.05812 10.2422 8.10469Q10.1995 8.15126 10.1297 8.15126Q10.0598 8.15126 10.0171 8.10469Q9.97444 8.05812 9.97444 7.99604V5.7686Q9.97444 5.21756 9.70668 4.87219Q9.43892 4.52682 8.89564 4.52682Q8.56192 4.52682 8.23983 4.69756Q7.91774 4.86831 7.71596 5.15159Q7.51417 5.43487 7.51417 5.7686V7.99604Q7.51417 8.05812 7.47148 8.10469Q7.42879 8.15126 7.35894 8.15126Q7.28909 8.15126 7.24641 8.10469Q7.20372 8.05812 7.20372 7.99604V5.72979Q7.20372 5.19427 6.94761 4.86055Q6.69149 4.52682 6.17149 4.52682Q5.84553 4.52682 5.53508 4.6898Q5.22464 4.85279 5.02673 5.13219Q4.82882 5.41159 4.82882 5.72979V7.99604Q4.82882 8.05812 4.78226 8.10469Q4.73569 8.15126 4.6736 8.15126Q4.60375 8.15126 4.56106 8.10469Q4.51838 8.05812 4.51838 7.99604V4.43369Q4.51838 4.3716 4.56494 4.32503Q4.61151 4.27846 4.6736 4.27846Q4.74345 4.27846 4.78614 4.32503Q4.82882 4.3716 4.82882 4.43369V4.97696Q5.05389 4.651 5.41479 4.44145Q5.77568 4.2319 6.17149 4.2319Q6.59836 4.2319 6.93208 4.44921Q7.26581 4.66652 7.42103 5.08562Q7.58402 4.72861 8.03804 4.48025Q8.49207 4.2319 8.92669 4.2319Q9.59414 4.2319 9.93951 4.651Q10.2849 5.0701 10.2849 5.73755ZM13.2186 8.22887Q12.6831 8.22887 12.2446 7.96111Q11.8061 7.69335 11.5538 7.22769Q11.3016 6.76202 11.3016 6.19546Q11.3016 5.62114 11.5538 5.15547Q11.8061 4.6898 12.2407 4.42204Q12.6753 4.15429 13.2186 4.15429Q13.7541 4.15429 14.1926 4.42204Q14.6311 4.6898 14.8795 5.15547Q15.1278 5.62114 15.1278 6.19546Q15.1278 6.76978 14.8795 7.23157Q14.6311 7.69335 14.1926 7.96111Q13.7541 8.22887 13.2186 8.22887ZM13.2186 4.44921Q12.7684 4.44921 12.3998 4.67816Q12.0311 4.90711 11.8216 5.30293Q11.612 5.69875 11.612 6.19546Q11.612 6.68441 11.8216 7.08022Q12.0311 7.47604 12.3998 7.70499Q12.7684 7.93395 13.2186 7.93395Q13.6765 7.93395 14.0413 7.70887Q14.406 7.4838 14.6117 7.08411Q14.8174 6.68441 14.8174 6.19546Q14.8174 5.69875 14.6117 5.30293Q14.406 4.90711 14.0413 4.67816Q13.6765 4.44921 13.2186 4.44921ZM19.474 2.56326V7.99604Q19.474 8.05812 19.4275 8.10469Q19.3809 8.15126 19.3188 8.15126Q19.249 8.15126 19.2063 8.10469Q19.1636 8.05812 19.1636 7.99604V7.25873Q18.9773 7.67007 18.5738 7.94947Q18.1702 8.22887 17.6735 8.22887Q17.169 8.22887 16.7577 7.96111Q16.3463 7.69335 16.1096 7.22769Q15.8729 6.76202 15.8729 6.1877Q15.8729 5.61337 16.1096 5.14771Q16.3463 4.68204 16.7577 4.41816Q17.169 4.15429 17.6735 4.15429Q18.1547 4.15429 18.566 4.42592Q18.9773 4.69756 19.1636 5.13219V2.56326Q19.1636 2.50117 19.2063 2.4546Q19.249 2.40804 19.3188 2.40804Q19.3887 2.40804 19.4314 2.4546Q19.474 2.50117 19.474 2.56326ZM19.1946 6.1877Q19.1946 5.69099 19.0006 5.29517Q18.8066 4.89935 18.4612 4.67428Q18.1158 4.44921 17.689 4.44921Q17.2699 4.44921 16.9245 4.67428Q16.5791 4.89935 16.3812 5.29905Q16.1833 5.69875 16.1833 6.1877Q16.1833 6.68441 16.3812 7.08022Q16.5791 7.47604 16.9206 7.70499Q17.2621 7.93395 17.689 7.93395Q18.1236 7.93395 18.4651 7.70887Q18.8066 7.4838 19.0006 7.08411Q19.1946 6.68441 19.1946 6.1877ZM20.4907 7.38291Q20.4907 7.32858 20.5528 7.28201Q20.5916 7.24321 20.646 7.24321Q20.7236 7.24321 20.7701 7.3053Q21.2203 7.94947 22.0274 7.94947Q22.4388 7.94947 22.7492 7.7438Q23.0597 7.53813 23.0597 7.18888Q23.0597 6.83187 22.788 6.65336Q22.5164 6.47486 22.043 6.35844Q21.4143 6.20322 21.0534 5.94322Q20.6925 5.68323 20.6925 5.2098Q20.6925 4.75189 21.0573 4.45309Q21.4221 4.15429 21.9964 4.15429Q22.3146 4.15429 22.6289 4.27846Q22.9433 4.40264 23.1994 4.67428Q23.2537 4.72085 23.2537 4.78294Q23.2537 4.85279 23.1994 4.90711Q23.1373 4.93816 23.0985 4.93816Q23.0442 4.93816 23.0053 4.89159Q22.6018 4.44921 21.9654 4.44921Q21.554 4.44921 21.2707 4.651Q20.9875 4.85279 20.9875 5.2098Q21.0107 5.54352 21.294 5.72591Q21.5773 5.9083 22.1283 6.048Q22.5242 6.14889 22.7842 6.26919Q23.0442 6.38949 23.1994 6.6068Q23.3546 6.82411 23.3546 7.17336Q23.3546 7.66231 22.9782 7.94559Q22.6018 8.22887 21.9964 8.22887Q21.1116 8.22887 20.5451 7.53037Q20.4907 7.445 20.4907 7.38291ZM27.3981 4.70533Q27.3981 4.76741 27.3554 4.81398Q27.3128 4.86055 27.2507 4.86055Q27.1808 4.86055 27.1459 4.83726Q27.111 4.81398 27.0489 4.75189Q26.948 4.63547 26.8393 4.58115Q26.5599 4.44921 26.0477 4.44921Q25.6053 4.44921 25.2289 4.68204Q24.8525 4.91488 24.6313 5.31457Q24.4101 5.71427 24.4101 6.1877Q24.4101 6.68441 24.6158 7.08411Q24.8214 7.4838 25.1979 7.70887Q25.5743 7.93395 26.0477 7.93395Q26.3581 7.93395 26.5367 7.87962Q26.7152 7.82529 26.8937 7.7244Q27.0178 7.64679 27.111 7.55365Q27.1498 7.51485 27.1886 7.48768Q27.2274 7.46052 27.2662 7.46052Q27.3283 7.46052 27.3632 7.49932Q27.3981 7.53813 27.3981 7.60022Q27.3981 7.70887 27.2196 7.86022Q27.0411 8.01156 26.7268 8.12021Q26.4125 8.22887 26.0244 8.22887Q25.4656 8.22887 25.0271 7.96499Q24.5886 7.70111 24.3441 7.23545Q24.0997 6.76978 24.0997 6.1877Q24.0997 5.64442 24.3441 5.17875Q24.5886 4.71309 25.0349 4.43369Q25.4811 4.15429 26.0555 4.15429Q26.3892 4.15429 26.7035 4.2319Q27.0178 4.30951 27.208 4.43757Q27.3981 4.56562 27.3981 4.70533ZM31.6823 4.43369V7.99604Q31.6823 8.05812 31.6357 8.10469Q31.5891 8.15126 31.527 8.15126Q31.4572 8.15126 31.4145 8.10469Q31.3718 8.05812 31.3718 7.99604V7.29754Q31.1778 7.69335 30.7742 7.96111Q30.3706 8.22887 29.8817 8.22887Q29.3695 8.22887 28.9581 7.96111Q28.5468 7.69335 28.3139 7.22381Q28.0811 6.75426 28.0811 6.17217Q28.0811 5.59785 28.3178 5.13607Q28.5545 4.67428 28.9659 4.41428Q29.3772 4.15429 29.8817 4.15429Q30.3862 4.15429 30.7897 4.41816Q31.1933 4.68204 31.3718 5.12443V4.43369Q31.3718 4.3716 31.4145 4.32503Q31.4572 4.27846 31.527 4.27846Q31.5969 4.27846 31.6396 4.32503Q31.6823 4.3716 31.6823 4.43369ZM31.4029 6.17217Q31.4029 5.69875 31.2088 5.30293Q31.0148 4.90711 30.6694 4.67816Q30.3241 4.44921 29.8972 4.44921Q29.4703 4.44921 29.125 4.6704Q28.7796 4.89159 28.5856 5.28353Q28.3916 5.67546 28.3916 6.17217Q28.3916 6.66889 28.5856 7.07246Q28.7796 7.47604 29.1211 7.70499Q29.4626 7.93395 29.8972 7.93395Q30.3241 7.93395 30.6694 7.70499Q31.0148 7.47604 31.2088 7.07246Q31.4029 6.66889 31.4029 6.17217ZM36.1216 5.62114V7.99604Q36.1216 8.05812 36.0751 8.10469Q36.0285 8.15126 35.9664 8.15126Q35.8965 8.15126 35.8539 8.10469Q35.8112 8.05812 35.8112 7.99604V5.65218Q35.8112 5.12443 35.5357 4.78682Q35.2601 4.44921 34.7013 4.44921Q34.3599 4.44921 34.03 4.61219Q33.7002 4.77517 33.4906 5.05457Q33.2811 5.33397 33.2811 5.65218V7.99604Q33.2811 8.05812 33.2345 8.10469Q33.1879 8.15126 33.1258 8.15126Q33.056 8.15126 33.0133 8.10469Q32.9706 8.05812 32.9706 7.99604V4.43369Q32.9706 4.3716 33.0172 4.32503Q33.0637 4.27846 33.1258 4.27846Q33.1957 4.27846 33.2384 4.32503Q33.2811 4.3716 33.2811 4.43369V4.95368Q33.5061 4.60443 33.9136 4.37936Q34.321 4.15429 34.7324 4.15429Q35.4231 4.15429 35.7724 4.56174Q36.1216 4.9692 36.1216 5.62114Z" style="display:inline;stroke:#000000;stroke-width:0.35;stroke-linecap:round;stroke-linejoin:bevel" />
    </g>
</svg>
